<?xml version="1.0" standalone="no"?>
<!DOCTYPE svg PUBLIC "-//W3C//DTD SVG 20010904//EN"
 "http://www.w3.org/TR/2001/REC-SVG-20010904/DTD/svg10.dtd">
<svg version="1.0" xmlns="http://www.w3.org/2000/svg"
 width="64.000000pt" height="64.000000pt" viewBox="0 0 64.000000 64.000000"
 preserveAspectRatio="xMidYMid meet">

<g transform="translate(0.000000,64.000000) scale(0.100000,-0.100000)"
fill="#000000" stroke="none">
<path d="M254 626 c-67 -29 -110 -126 -86 -194 10 -29 9 -30 -26 -36 -78 -13
-142 -83 -142 -156 0 -119 140 -199 250 -141 22 11 40 19 40 17 0 -2 -6 -19
-14 -37 -34 -83 -36 -79 44 -79 80 0 78 -4 44 79 -8 18 -14 35 -14 37 0 2 18
-6 40 -17 84 -44 202 -5 236 77 41 98 -20 203 -127 220 -36 6 -37 7 -27 36 15
43 4 104 -27 144 -46 60 -123 79 -191 50z"/>
</g>
</svg>
